<svg xmlns="http://www.w3.org/2000/svg" width="74" height="74" viewBox="0 0 74 74"><defs><style>.a{fill:#228dcb;}.b{fill:#fff;}</style></defs><g transform="translate(-885 -56)"><circle class="a" cx="37" cy="37" r="37" transform="translate(885 56)"/><path class="b" d="M94,350v10.57h17.045V350Zm4.823,6.408H96.709v-1.982h2.114Zm9.513,0h-2.114v-1.982h2.114Zm-4.757,0h-2.114v-1.982h2.114Z" transform="translate(817.863 -250.224)"/><path class="b" d="M264,99.941v8.037h7.8v12.552h4.228V92.98Zm4.162,4.734v-1.982h3.7v1.982Z" transform="translate(659.095 -10.184)"/><path class="b" d="M20.084,0V5.285H13.609V0H0V33.693H4.228V21.141h9.381V7.267h6.474V9.284C28.8,4.241,8.634,15.913,31.447,2.705V33.693h2.246V0ZM9.447,18.895H4.162V16.913H9.447Zm0-4.228H4.162V12.685H9.447Zm0-4.228H4.162V8.456H9.447Zm0-4.228H4.162V4.228H9.447Z" transform="translate(905.653 76.653)"/></g></svg>