<svg xmlns="http://www.w3.org/2000/svg" width="74" height="74" viewBox="0 0 74 74"><defs><style>.a{fill:#228dcb;}.b{fill:#fff;}</style></defs><g transform="translate(-750 -56)"><circle class="a" cx="37" cy="37" r="37" transform="translate(750 56)"/><path class="b" d="M4231.72,549.584c-.453.24-.751.369-1.018.546a5.929,5.929,0,0,0,.527,10.12c.4.217.755.357.751.969-.033,4.7-.008,9.4-.04,14.095a1.36,1.36,0,0,1-.5.938,4.6,4.6,0,0,0-1.99,4.325c.137,1.673,1.415,3.34,2.785,3.545,0-1.1-.071-2.191.033-3.268a1.872,1.872,0,0,1,.711-1.316,1.8,1.8,0,0,1,2.825,1.719c0,.975,0,1.949,0,2.992a4.529,4.529,0,0,0,.93-7.833,1.367,1.367,0,0,1-.644-1.266q.031-6.865,0-13.731a1.145,1.145,0,0,1,.714-1.188,5.822,5.822,0,0,0,2.819-7.052,5.709,5.709,0,0,0-3.3-3.559c-.027.448-.061.768-.062,1.088,0,1.182.066,2.369-.025,3.544-.038.486-.341,1.288-.65,1.353a7.2,7.2,0,0,1-2.99.109c-.875-.2-.889-1.179-.882-1.995C4231.728,552.4,4231.72,551.076,4231.72,549.584Zm-31.3,34.659h29.395a6.182,6.182,0,0,1-.934-7.12c-1.447-.432-2.83-.863-4.227-1.238a.753.753,0,0,0-.6.347c-.355.633-.641,1.3-.953,1.961l-2.255,4.749c-.989-.756-1.919-1.384-2.745-2.128a1.113,1.113,0,0,0-1.763.019c-.845.747-1.785,1.388-2.739,2.117l-3.368-7.106a1.41,1.41,0,0,0-.328,0c-2.438.722-4.882,1.427-7.309,2.186a2.454,2.454,0,0,0-1.764,1.927C4200.593,581.349,4200.55,582.77,4200.421,584.243Zm9.5-17.971a5,5,0,0,0,.3.938,48.9,48.9,0,0,0,3.025,5.138,4.918,4.918,0,0,0,7.977.1,17.483,17.483,0,0,0,3.28-5.825c.282-.846.454-1.729.71-2.732A66.852,66.852,0,0,1,4209.923,566.272Zm15.391-4.814a7.871,7.871,0,0,0-4.4-6.512,7.723,7.723,0,0,0-8.619.827,7.552,7.552,0,0,0-3.081,5.686Zm-1.573,1.633q-.01-.157-.02-.315h-14.889c-.212,0-.5-.082-.623.025-.466.425-.877.91-1.31,1.373a9.442,9.442,0,0,0,1.3.749,2.272,2.272,0,0,0,.991.041c3.014-.268,6.035-.487,9.038-.85C4220.08,563.889,4221.9,563.439,4223.741,563.09Zm-7.467,16.2c-1.268-1.357-2.425-2.639-3.645-3.858-.214-.214-.691-.164-1.047-.236l-.121.261,2.61,5.527Zm6.78-4c-.477,0-.94-.14-1.1.022-1.273,1.273-2.49,2.6-3.786,3.984l2.216,1.688Zm-9.194-.44,3.359,3.583,3.145-3.362A6.956,6.956,0,0,1,4213.86,574.858Z" transform="translate(-3433.183 -475.248)"/><path class="b" d="M4356.159,549.584c0,1.492.008,2.814,0,4.135-.007.815.007,1.8.882,1.995a7.2,7.2,0,0,0,2.991-.109c.309-.066.612-.867.649-1.353.092-1.175.021-2.362.025-3.544,0-.32.036-.641.063-1.088a5.709,5.709,0,0,1,3.3,3.559,5.822,5.822,0,0,1-2.82,7.052,1.144,1.144,0,0,0-.713,1.188q.037,6.865,0,13.731a1.366,1.366,0,0,0,.644,1.266,4.529,4.529,0,0,1-.931,7.833c0-1.042,0-2.017,0-2.992a1.8,1.8,0,0,0-2.825-1.719,1.872,1.872,0,0,0-.711,1.316c-.1,1.077-.033,2.172-.033,3.268-1.37-.2-2.647-1.872-2.785-3.545a4.6,4.6,0,0,1,1.99-4.325,1.36,1.36,0,0,0,.5-.938c.031-4.7.007-9.4.04-14.095,0-.612-.348-.753-.75-.969a5.929,5.929,0,0,1-.527-10.12C4355.408,549.953,4355.707,549.824,4356.159,549.584Z" transform="translate(-3557.621 -475.248)"/><path class="b" d="M4200.421,702.217c.129-1.472.172-2.894.406-4.283a2.454,2.454,0,0,1,1.764-1.927c2.427-.759,4.871-1.464,7.309-2.186a1.414,1.414,0,0,1,.328,0l3.368,7.106c.955-.729,1.895-1.369,2.739-2.116a1.113,1.113,0,0,1,1.763-.019c.826.744,1.756,1.371,2.745,2.128l2.255-4.749c.312-.657.6-1.328.953-1.961a.753.753,0,0,1,.6-.347c1.4.375,2.78.806,4.227,1.238a6.182,6.182,0,0,0,.934,7.12Z" transform="translate(-3433.183 -593.222)"/><path class="b" d="M4252.628,630.583a66.857,66.857,0,0,0,15.288-2.377c-.257,1-.429,1.886-.711,2.732a17.491,17.491,0,0,1-3.28,5.825,4.918,4.918,0,0,1-7.977-.1,48.985,48.985,0,0,1-3.026-5.138A5.008,5.008,0,0,1,4252.628,630.583Z" transform="translate(-3475.887 -539.559)"/><path class="b" d="M4264.832,581.311h-16.1a7.554,7.554,0,0,1,3.082-5.686,7.722,7.722,0,0,1,8.618-.827A7.872,7.872,0,0,1,4264.832,581.311Zm-8.547-2.616a4.924,4.924,0,0,0-.624,1.06,2.222,2.222,0,0,0,.138.878c.289-.057.7-.014.844-.19a15.952,15.952,0,0,0,1.375-2.022c.309-.531.135-.936-.513-1.05-.221-.039-.446-.058-.769-.1a4.4,4.4,0,0,0,.593-1,2.256,2.256,0,0,0-.133-.866c-.295.063-.716.024-.862.206a16.911,16.911,0,0,0-1.367,2.027c-.307.519-.083.868.493.981C4255.688,578.663,4255.924,578.663,4256.284,578.7Z" transform="translate(-3472.7 -495.102)"/><path class="b" d="M4252.858,622.239c-1.836.349-3.661.8-5.512,1.023-3,.363-6.024.581-9.038.85a2.272,2.272,0,0,1-.991-.041,9.418,9.418,0,0,1-1.3-.749c.432-.463.843-.948,1.31-1.373.118-.107.411-.025.623-.025h14.889C4252.844,622.03,4252.852,622.134,4252.858,622.239Z" transform="translate(-3462.3 -534.396)"/><path class="b" d="M4265.887,694.413l-2.2,1.695-2.61-5.527.121-.261c.356.072.833.022,1.047.235C4263.462,691.775,4264.619,693.057,4265.887,694.413Z" transform="translate(-3482.795 -590.368)"/><path class="b" d="M4302.8,690.607l-2.673,5.694-2.216-1.688c1.3-1.379,2.512-2.71,3.786-3.984C4301.857,690.467,4302.321,690.607,4302.8,690.607Z" transform="translate(-3512.927 -590.556)"/><path class="b" d="M4274.256,688.441a6.956,6.956,0,0,0,6.5.221l-3.145,3.362Z" transform="translate(-3493.578 -588.831)"/><path class="a" d="M4283.681,585.655c-.36-.032-.6-.033-.825-.077-.576-.112-.8-.462-.493-.981a16.915,16.915,0,0,1,1.367-2.027c.147-.182.567-.143.862-.206a2.247,2.247,0,0,1,.133.866,4.379,4.379,0,0,1-.593,1c.323.041.548.061.769.1.647.114.821.519.513,1.05a15.908,15.908,0,0,1-1.375,2.022c-.142.176-.556.133-.844.19a2.222,2.222,0,0,1-.138-.878A4.924,4.924,0,0,1,4283.681,585.655Z" transform="translate(-3500.097 -502.061)"/></g></svg>