<svg xmlns="http://www.w3.org/2000/svg" width="74" height="74" viewBox="0 0 74 74"><defs><style>.a{fill:none;stroke:#fff;}.b{fill:#228dcb;}.c{fill:#fff;}</style></defs><g transform="translate(-478 -56)"><path class="a" d="M0,29" transform="translate(481.5 78.5)"/><circle class="b" cx="37" cy="37" r="37" transform="translate(478 56)"/><path class="c" d="M1688.928,1536.248h-32.506v2.3h2.418v13.975h2.309v-2.183h23.162v2.219h2.325v-14.076h2.292Zm-13.17-3.072c1.206-.308,2.24-.62,3.3-.818a2.112,2.112,0,0,1,1.31.184,10.43,10.43,0,1,0,5.923-19.483,10.446,10.446,0,0,0-9.87,15.546,2.008,2.008,0,0,1,.177,1.23C1676.387,1530.9,1676.076,1531.937,1675.758,1533.175Zm-14.169.642h12.994a7.083,7.083,0,0,0-5.594-4.538c2.943-1.316,4.142-3.188,3.646-5.558a4.629,4.629,0,0,0-9.081-.07,4.466,4.466,0,0,0,.636,3.455,5.106,5.106,0,0,0,3.133,2.149A7.171,7.171,0,0,0,1661.589,1533.818Z" transform="translate(-1161.166 -1439.558)"/><path class="c" d="M1688.928,1644.471v2.234h-2.292v14.076h-2.325v-2.219h-23.162v2.183h-2.309V1646.77h-2.418v-2.3Z" transform="translate(-1161.166 -1547.781)"/><path class="c" d="M1762.411,1533.175c.318-1.239.629-2.28.835-3.342a2.007,2.007,0,0,0-.177-1.23,10.446,10.446,0,0,1,9.87-15.546,10.423,10.423,0,1,1-5.923,19.483,2.112,2.112,0,0,0-1.31-.184C1764.651,1532.555,1763.617,1532.867,1762.411,1533.175Zm10.813-10.874c-.584,0-1.055.026-1.521-.007-.571-.04-.782.175-.763.758.037,1.087.01,2.177.01,3.266,0,.961,0,1.923,0,2.9h2.274Zm-2.195-4.622v2.224h2.181v-2.224Z" transform="translate(-1247.819 -1439.558)"/><path class="c" d="M1685.68,1566.094a7.171,7.171,0,0,1,5.734-4.562,5.106,5.106,0,0,1-3.133-2.149,4.466,4.466,0,0,1-.636-3.455,4.629,4.629,0,0,1,9.081.07c.5,2.37-.7,4.242-3.646,5.558a7.083,7.083,0,0,1,5.594,4.538Z" transform="translate(-1185.257 -1471.833)"/><path class="b" d="M1816.478,1565.453v6.918H1814.2v-2.9c0-1.089.027-2.179-.01-3.266-.02-.583.192-.8.763-.758C1815.423,1565.479,1815.894,1565.453,1816.478,1565.453Z" transform="translate(-1291.073 -1482.708)"/><path class="b" d="M1814.7,1539.333h2.181v2.224H1814.7Z" transform="translate(-1291.494 -1461.211)"/></g></svg>