<?xml version="1.0" encoding="utf-8"?>
<!-- Generator: Adobe Illustrator 23.0.0, SVG Export Plug-In . SVG Version: 6.00 Build 0)  -->
<svg version="1.1" id="Layer_1" xmlns="http://www.w3.org/2000/svg" xmlns:xlink="http://www.w3.org/1999/xlink" x="0px" y="0px"
	 viewBox="0 0 112 38" style="enable-background:new 0 0 112 38;" xml:space="preserve">
<style type="text/css">
	.st0{display:none;}
	.st1{display:inline;fill:#FFFFFF;}
	.st2{display:inline;}
	.st3{fill:#FFFFFF;}
	.st4{fill:#FFFFFF;stroke:#FFFFFF;stroke-width:0.2;stroke-miterlimit:10;}
	.st5{fill:url(#SVGID_1_);}
	.st6{fill:url(#SVGID_2_);}
	.st7{fill:url(#SVGID_3_);}
	.st8{fill:url(#SVGID_4_);}
	.st9{opacity:0.2;enable-background:new    ;}
	.st10{opacity:0.12;enable-background:new    ;}
	.st11{opacity:0.25;fill:#FFFFFF;enable-background:new    ;}
</style>
<g class="st0">
	<path class="st1" d="M107.45,37.9H3.9c-2.15,0-3.9-1.75-3.9-3.88V3.97C0,1.84,1.75,0.1,3.9,0.1h103.55c2.15,0,3.96,1.74,3.96,3.88
		v30.05C111.41,36.16,109.6,37.9,107.45,37.9L107.45,37.9z"/>
	<path class="st2" d="M110.61,34.02c0,1.74-1.41,3.14-3.16,3.14H3.9c-1.75,0-3.17-1.41-3.17-3.14V3.97c0-1.73,1.42-3.14,3.17-3.14
		h103.55c1.75,0,3.16,1.41,3.16,3.14L110.61,34.02L110.61,34.02z"/>
	<g class="st2">
		<g>
			<path class="st3" d="M24.86,18.32c-0.02-2.64,2.18-3.93,2.28-3.99c-1.25-1.81-3.18-2.05-3.86-2.07c-1.62-0.17-3.2,0.97-4.02,0.97
				c-0.84,0-2.12-0.95-3.49-0.92c-1.77,0.03-3.42,1.04-4.32,2.62c-1.87,3.22-0.48,7.94,1.32,10.55c0.9,1.27,1.94,2.7,3.31,2.65
				c1.34-0.05,1.84-0.85,3.46-0.85c1.6,0,2.07,0.85,3.47,0.82c1.44-0.02,2.35-1.28,3.21-2.56c1.04-1.46,1.45-2.9,1.47-2.97
				C27.65,22.54,24.89,21.49,24.86,18.32z"/>
			<path class="st3" d="M22.22,10.55c0.72-0.9,1.21-2.12,1.08-3.35c-1.04,0.05-2.35,0.72-3.1,1.59c-0.67,0.77-1.26,2.04-1.11,3.23
				C20.27,12.11,21.47,11.43,22.22,10.55z"/>
		</g>
	</g>
	<g class="st2">
		<path class="st3" d="M44.27,27.93H42.4l-1.03-3.21H37.8l-0.98,3.21H35l3.54-10.91h2.18L44.27,27.93z M41.06,23.38l-0.93-2.85
			c-0.1-0.29-0.28-0.98-0.55-2.06h-0.03c-0.11,0.46-0.28,1.15-0.52,2.06l-0.91,2.85H41.06z"/>
		<path class="st3" d="M53.36,23.9c0,1.34-0.36,2.4-1.09,3.17c-0.65,0.69-1.46,1.04-2.43,1.04c-1.04,0-1.79-0.37-2.25-1.12h-0.03
			v4.15H45.8v-8.49c0-0.84-0.02-1.7-0.07-2.59h1.55l0.1,1.25h0.03c0.59-0.94,1.48-1.41,2.67-1.41c0.93,0,1.71,0.37,2.34,1.1
			C53.05,21.74,53.36,22.7,53.36,23.9z M51.57,23.97c0-0.77-0.17-1.4-0.52-1.89c-0.38-0.52-0.89-0.78-1.53-0.78
			c-0.43,0-0.83,0.14-1.18,0.43s-0.58,0.66-0.69,1.13c-0.05,0.22-0.08,0.39-0.08,0.53v1.31c0,0.57,0.18,1.06,0.53,1.45
			c0.35,0.39,0.81,0.59,1.38,0.59c0.66,0,1.18-0.25,1.55-0.76C51.39,25.47,51.57,24.8,51.57,23.97z"/>
		<path class="st3" d="M62.47,23.9c0,1.34-0.36,2.4-1.09,3.17c-0.65,0.69-1.46,1.04-2.43,1.04c-1.04,0-1.79-0.37-2.25-1.12h-0.03
			v4.15h-1.76v-8.49c0-0.84-0.02-1.7-0.07-2.59h1.55l0.1,1.25h0.03c0.59-0.94,1.48-1.41,2.67-1.41c0.93,0,1.71,0.37,2.34,1.1
			C62.16,21.74,62.47,22.7,62.47,23.9z M60.68,23.97c0-0.77-0.17-1.4-0.52-1.89c-0.38-0.52-0.89-0.78-1.53-0.78
			c-0.43,0-0.83,0.14-1.18,0.43s-0.58,0.66-0.69,1.13c-0.05,0.22-0.08,0.39-0.08,0.53v1.31c0,0.57,0.18,1.06,0.53,1.45
			c0.35,0.39,0.81,0.59,1.38,0.59c0.66,0,1.18-0.25,1.55-0.76C60.5,25.47,60.68,24.8,60.68,23.97z"/>
		<path class="st3" d="M72.66,24.87c0,0.93-0.32,1.68-0.98,2.27c-0.72,0.64-1.71,0.96-2.99,0.96c-1.18,0-2.13-0.23-2.85-0.68
			l0.41-1.46c0.77,0.46,1.62,0.7,2.54,0.7c0.66,0,1.18-0.15,1.55-0.45c0.37-0.3,0.55-0.7,0.55-1.19c0-0.44-0.15-0.82-0.46-1.12
			c-0.3-0.3-0.81-0.58-1.52-0.84c-1.92-0.71-2.88-1.76-2.88-3.13c0-0.9,0.34-1.63,1.01-2.21c0.67-0.57,1.57-0.86,2.69-0.86
			c1,0,1.83,0.17,2.49,0.52l-0.44,1.43c-0.62-0.33-1.32-0.5-2.1-0.5c-0.62,0-1.1,0.15-1.45,0.45c-0.29,0.27-0.44,0.6-0.44,0.99
			c0,0.43,0.17,0.79,0.5,1.07c0.29,0.26,0.83,0.54,1.6,0.84c0.94,0.38,1.64,0.82,2.09,1.33C72.44,23.49,72.66,24.12,72.66,24.87z"/>
		<path class="st3" d="M78.47,21.38h-1.94v3.82c0,0.97,0.34,1.46,1.03,1.46c0.31,0,0.58-0.03,0.78-0.08l0.05,1.33
			c-0.35,0.13-0.8,0.19-1.37,0.19c-0.69,0-1.24-0.21-1.63-0.63s-0.59-1.13-0.59-2.12v-3.97h-1.16v-1.31h1.16v-1.44l1.73-0.52v1.96
			h1.94C78.47,20.06,78.47,21.38,78.47,21.38z"/>
		<path class="st3" d="M87.23,23.93c0,1.21-0.35,2.2-1.04,2.98c-0.73,0.8-1.7,1.2-2.9,1.2c-1.16,0-2.09-0.38-2.78-1.15
			s-1.03-1.73-1.03-2.9c0-1.22,0.35-2.22,1.07-2.99c0.71-0.78,1.67-1.17,2.88-1.17c1.16,0,2.1,0.38,2.8,1.15
			C86.89,21.8,87.23,22.76,87.23,23.93z M85.4,23.99c0-0.73-0.16-1.35-0.47-1.87c-0.37-0.63-0.9-0.94-1.58-0.94
			c-0.71,0-1.24,0.31-1.61,0.94c-0.32,0.52-0.47,1.15-0.47,1.9c0,0.73,0.16,1.35,0.47,1.87c0.38,0.63,0.91,0.94,1.6,0.94
			c0.67,0,1.2-0.32,1.58-0.96C85.24,25.35,85.4,24.72,85.4,23.99z"/>
		<path class="st3" d="M92.94,21.6c-0.17-0.03-0.36-0.05-0.55-0.05c-0.62,0-1.1,0.23-1.43,0.7c-0.29,0.41-0.44,0.93-0.44,1.55v4.13
			h-1.76l0.02-5.39c0-0.91-0.02-1.73-0.07-2.48h1.53l0.06,1.51h0.05c0.19-0.52,0.48-0.93,0.88-1.25c0.39-0.28,0.82-0.42,1.27-0.42
			c0.16,0,0.31,0.01,0.44,0.03C92.94,19.94,92.94,21.6,92.94,21.6z"/>
		<path class="st3" d="M100.81,23.63c0,0.31-0.02,0.58-0.06,0.79h-5.28c0.02,0.78,0.28,1.37,0.77,1.78
			c0.44,0.37,1.02,0.55,1.73,0.55c0.78,0,1.49-0.12,2.14-0.37l0.28,1.21c-0.75,0.32-1.63,0.49-2.65,0.49
			c-1.23,0-2.19-0.36-2.89-1.08s-1.05-1.68-1.05-2.89c0-1.19,0.33-2.17,0.98-2.96c0.68-0.84,1.61-1.26,2.77-1.26
			c1.14,0,2.01,0.42,2.59,1.26C100.58,21.82,100.81,22.65,100.81,23.63z M99.14,23.17c0.01-0.52-0.1-0.97-0.34-1.34
			c-0.3-0.49-0.77-0.73-1.4-0.73c-0.58,0-1.04,0.24-1.4,0.71c-0.29,0.38-0.47,0.83-0.52,1.36H99.14L99.14,23.17z"/>
	</g>
	<g class="st2">
		<g>
			<path class="st3" d="M40.48,10.31c0,0.97-0.29,1.69-0.87,2.18c-0.54,0.45-1.3,0.68-2.3,0.68c-0.49,0-0.91-0.02-1.27-0.06V7.82
				C36.5,7.75,37,7.71,37.53,7.71c0.94,0,1.66,0.2,2.14,0.61C40.21,8.79,40.48,9.45,40.48,10.31z M39.57,10.33
				c0-0.63-0.17-1.11-0.5-1.44c-0.33-0.33-0.82-0.5-1.46-0.5c-0.27,0-0.5,0.02-0.7,0.06v4.01c0.11,0.02,0.3,0.02,0.58,0.02
				c0.66,0,1.17-0.18,1.53-0.55C39.39,11.56,39.57,11.03,39.57,10.33z"/>
			<path class="st3" d="M45.32,11.15c0,0.59-0.17,1.08-0.51,1.46c-0.36,0.39-0.83,0.59-1.43,0.59c-0.57,0-1.03-0.19-1.37-0.57
				s-0.51-0.85-0.51-1.42c0-0.6,0.17-1.09,0.52-1.47s0.82-0.57,1.41-0.57c0.57,0,1.03,0.19,1.38,0.56
				C45.15,10.1,45.32,10.57,45.32,11.15z M44.42,11.18c0-0.36-0.08-0.66-0.23-0.92c-0.18-0.31-0.44-0.46-0.78-0.46
				c-0.35,0-0.61,0.15-0.79,0.46c-0.16,0.26-0.23,0.57-0.23,0.93c0,0.36,0.08,0.66,0.23,0.92c0.19,0.31,0.45,0.46,0.78,0.46
				c0.33,0,0.59-0.16,0.78-0.47C44.34,11.84,44.42,11.53,44.42,11.18z"/>
			<path class="st3" d="M51.8,9.25l-1.22,3.87h-0.79l-0.5-1.68c-0.13-0.42-0.23-0.84-0.31-1.25h-0.02
				c-0.08,0.42-0.18,0.84-0.31,1.25l-0.54,1.68h-0.8l-1.14-3.87h0.89l0.44,1.84c0.11,0.43,0.19,0.85,0.26,1.24h0.02
				c0.06-0.32,0.17-0.73,0.32-1.23l0.55-1.85h0.7l0.53,1.81c0.13,0.44,0.23,0.86,0.31,1.27h0.02c0.06-0.4,0.15-0.82,0.26-1.27
				l0.47-1.81H51.8L51.8,9.25z"/>
			<path class="st3" d="M56.28,13.11h-0.86V10.9c0-0.68-0.26-1.02-0.78-1.02c-0.26,0-0.46,0.09-0.62,0.28s-0.24,0.41-0.24,0.66v2.29
				H52.9v-2.76c0-0.34-0.01-0.71-0.03-1.11h0.76l0.04,0.6h0.02c0.1-0.19,0.25-0.34,0.45-0.47c0.23-0.14,0.5-0.22,0.78-0.22
				c0.36,0,0.67,0.12,0.91,0.35c0.3,0.29,0.45,0.71,0.45,1.28C56.28,10.78,56.28,13.11,56.28,13.11z"/>
			<path class="st3" d="M58.67,13.11H57.8V7.48h0.86L58.67,13.11L58.67,13.11z"/>
			<path class="st3" d="M63.76,11.15c0,0.59-0.17,1.08-0.51,1.46c-0.36,0.39-0.83,0.59-1.43,0.59c-0.57,0-1.03-0.19-1.37-0.57
				s-0.51-0.85-0.51-1.42c0-0.6,0.17-1.09,0.52-1.47c0.35-0.38,0.82-0.57,1.41-0.57c0.57,0,1.03,0.19,1.38,0.56
				C63.59,10.1,63.76,10.57,63.76,11.15z M62.86,11.18c0-0.36-0.08-0.66-0.23-0.92c-0.18-0.31-0.44-0.46-0.77-0.46
				c-0.35,0-0.61,0.15-0.79,0.46c-0.16,0.26-0.23,0.57-0.23,0.93c0,0.36,0.08,0.66,0.23,0.92c0.19,0.31,0.45,0.46,0.78,0.46
				c0.33,0,0.59-0.16,0.77-0.47C62.78,11.84,62.86,11.53,62.86,11.18z"/>
			<path class="st3" d="M67.95,13.11h-0.78l-0.06-0.45h-0.02c-0.27,0.36-0.64,0.53-1.14,0.53c-0.37,0-0.66-0.12-0.89-0.35
				c-0.2-0.21-0.3-0.47-0.3-0.79c0-0.47,0.2-0.83,0.6-1.08s0.96-0.37,1.68-0.37v-0.07c0-0.51-0.27-0.76-0.81-0.76
				c-0.38,0-0.72,0.1-1.01,0.29L65.03,9.5c0.36-0.22,0.81-0.33,1.33-0.33c1.02,0,1.53,0.53,1.53,1.6v1.42
				C67.89,12.58,67.91,12.89,67.95,13.11z M67.05,11.79v-0.6c-0.95-0.02-1.43,0.24-1.43,0.78c0,0.2,0.05,0.35,0.17,0.45
				c0.11,0.1,0.25,0.15,0.42,0.15c0.19,0,0.37-0.06,0.53-0.18c0.16-0.12,0.26-0.27,0.3-0.46C67.04,11.9,67.05,11.84,67.05,11.79z"/>
			<path class="st3" d="M72.86,13.11h-0.77l-0.04-0.62h-0.02c-0.25,0.47-0.66,0.71-1.25,0.71c-0.47,0-0.86-0.18-1.17-0.55
				s-0.46-0.84-0.46-1.42c0-0.63,0.17-1.13,0.5-1.52c0.33-0.36,0.73-0.54,1.2-0.54c0.52,0,0.89,0.17,1.1,0.52h0.02V7.48h0.87v4.6
				C72.83,12.45,72.84,12.8,72.86,13.11z M71.96,11.48v-0.64c0-0.11-0.01-0.2-0.02-0.27c-0.05-0.21-0.15-0.38-0.31-0.52
				c-0.16-0.14-0.35-0.21-0.58-0.21c-0.32,0-0.58,0.13-0.76,0.38c-0.18,0.26-0.28,0.58-0.28,0.98c0,0.38,0.09,0.69,0.27,0.93
				c0.19,0.25,0.44,0.38,0.76,0.38c0.28,0,0.51-0.11,0.68-0.32C71.88,12,71.96,11.76,71.96,11.48z"/>
			<path class="st3" d="M80.26,11.15c0,0.59-0.17,1.08-0.51,1.46c-0.36,0.39-0.83,0.59-1.43,0.59c-0.57,0-1.03-0.19-1.37-0.57
				c-0.34-0.38-0.51-0.85-0.51-1.42c0-0.6,0.17-1.09,0.52-1.47s0.82-0.57,1.41-0.57c0.57,0,1.03,0.19,1.38,0.56
				C80.09,10.1,80.26,10.57,80.26,11.15z M79.36,11.18c0-0.36-0.08-0.66-0.23-0.92c-0.18-0.31-0.44-0.46-0.78-0.46
				c-0.35,0-0.61,0.15-0.79,0.46c-0.16,0.26-0.23,0.57-0.23,0.93c0,0.36,0.08,0.66,0.23,0.92c0.19,0.31,0.45,0.46,0.78,0.46
				s0.59-0.16,0.78-0.47C79.28,11.84,79.36,11.53,79.36,11.18z"/>
			<path class="st3" d="M84.91,13.11h-0.86V10.9c0-0.68-0.26-1.02-0.78-1.02c-0.26,0-0.46,0.09-0.62,0.28s-0.24,0.41-0.24,0.66v2.29
				h-0.87v-2.76c0-0.34-0.01-0.71-0.03-1.11h0.76l0.04,0.6h0.02c0.1-0.19,0.25-0.34,0.45-0.47c0.24-0.14,0.5-0.22,0.78-0.22
				c0.36,0,0.66,0.12,0.9,0.35c0.3,0.29,0.45,0.71,0.45,1.28C84.91,10.78,84.91,13.11,84.91,13.11z"/>
			<path class="st3" d="M90.73,9.89h-0.95v1.88c0,0.48,0.17,0.72,0.5,0.72c0.16,0,0.28-0.01,0.39-0.04l0.02,0.65
				c-0.17,0.06-0.4,0.1-0.67,0.1c-0.34,0-0.61-0.1-0.8-0.31s-0.29-0.55-0.29-1.04V9.89h-0.57V9.25h0.57V8.54l0.85-0.25v0.96h0.95
				L90.73,9.89L90.73,9.89z"/>
			<path class="st3" d="M95.31,13.11h-0.87v-2.2c0-0.69-0.26-1.04-0.78-1.04c-0.4,0-0.68,0.2-0.83,0.6
				c-0.03,0.08-0.04,0.19-0.04,0.31v2.32h-0.86V7.48h0.86V9.8h0.02c0.27-0.42,0.66-0.64,1.17-0.64c0.36,0,0.65,0.12,0.89,0.35
				c0.29,0.29,0.44,0.72,0.44,1.3C95.31,10.82,95.31,13.11,95.31,13.11z"/>
			<path class="st3" d="M100.03,11c0,0.15-0.01,0.28-0.03,0.39h-2.6c0.01,0.38,0.14,0.67,0.38,0.88c0.22,0.18,0.5,0.27,0.85,0.27
				c0.38,0,0.73-0.06,1.05-0.18l0.14,0.6c-0.37,0.16-0.8,0.24-1.31,0.24c-0.6,0-1.08-0.18-1.42-0.53c-0.34-0.35-0.52-0.83-0.52-1.42
				c0-0.58,0.16-1.07,0.48-1.46c0.34-0.41,0.79-0.62,1.36-0.62c0.56,0,0.98,0.21,1.27,0.62C99.92,10.11,100.03,10.52,100.03,11z
				 M99.21,10.78c0.01-0.26-0.05-0.47-0.17-0.66c-0.15-0.24-0.38-0.36-0.69-0.36c-0.28,0-0.51,0.12-0.69,0.35
				c-0.14,0.19-0.23,0.41-0.26,0.67C97.4,10.78,99.21,10.78,99.21,10.78z"/>
		</g>
	</g>
</g>
<g>
	<g>
		<path d="M107.71,37.67H4.3c-2.28,0-4.14-1.86-4.14-4.14V4.47c0-2.28,1.86-4.14,4.14-4.14h103.41c2.28,0,4.14,1.86,4.14,4.14v29.06
			C111.85,35.8,109.99,37.67,107.71,37.67z"/>
	</g>
	<g>
		<g>
			<path class="st3" d="M107.71,1c1.92,0,3.47,1.56,3.47,3.47v29.06c0,1.92-1.56,3.47-3.47,3.47H4.3c-1.92,0-3.47-1.56-3.47-3.47
				V4.47C0.82,2.55,2.38,1,4.3,1H107.71 M107.71,0.33H4.3c-2.28,0-4.14,1.86-4.14,4.14v29.06c0,2.28,1.86,4.14,4.14,4.14h103.41
				c2.28,0,4.14-1.86,4.14-4.14V4.47C111.85,2.2,109.99,0.33,107.71,0.33L107.71,0.33z"/>
		</g>
	</g>
	<g>
		<path class="st4" d="M39.39,10.93c0,0.69-0.21,1.25-0.62,1.66c-0.47,0.49-1.08,0.73-1.82,0.73c-0.72,0-1.33-0.25-1.83-0.74
			c-0.5-0.5-0.75-1.11-0.75-1.85c0-0.74,0.25-1.35,0.75-1.85s1.11-0.75,1.83-0.75c0.36,0,0.7,0.07,1.02,0.21s0.58,0.32,0.78,0.55
			l-0.44,0.44c-0.33-0.39-0.78-0.59-1.36-0.59c-0.52,0-0.97,0.18-1.36,0.55c-0.38,0.37-0.57,0.84-0.57,1.43s0.19,1.06,0.57,1.43
			c0.38,0.37,0.83,0.55,1.36,0.55c0.55,0,1.02-0.18,1.39-0.55c0.24-0.24,0.38-0.58,0.42-1.01h-1.8v-0.6h2.41
			C39.38,10.68,39.39,10.81,39.39,10.93z"/>
		<path class="st4" d="M43.21,8.85h-2.26v1.57h2.04v0.6h-2.04v1.57h2.26v0.61h-2.9V8.24h2.9C43.2,8.24,43.2,8.85,43.21,8.85z"/>
		<path class="st4" d="M45.9,13.21h-0.64V8.85h-1.39V8.24h3.41v0.61h-1.39L45.9,13.21L45.9,13.21z"/>
		<path class="st4" d="M49.75,13.21V8.24h0.64v4.96h-0.64V13.21z"/>
		<path class="st4" d="M53.22,13.21h-0.64V8.85h-1.39V8.24h3.41v0.61h-1.39L53.22,13.21L53.22,13.21z"/>
		<path class="st4" d="M61.06,12.57c-0.49,0.5-1.09,0.75-1.82,0.75s-1.33-0.25-1.82-0.75c-0.49-0.5-0.73-1.11-0.73-1.84
			s0.24-1.34,0.73-1.84c0.49-0.5,1.09-0.75,1.82-0.75c0.72,0,1.33,0.25,1.82,0.76c0.49,0.5,0.73,1.12,0.73,1.84
			C61.78,11.45,61.55,12.07,61.06,12.57z M57.89,12.15c0.37,0.37,0.82,0.56,1.35,0.56s0.98-0.19,1.35-0.56
			c0.37-0.37,0.55-0.85,0.55-1.42c0-0.58-0.18-1.05-0.55-1.42s-0.82-0.56-1.35-0.56s-0.98,0.19-1.35,0.56
			c-0.37,0.37-0.55,0.85-0.55,1.42C57.34,11.3,57.51,11.78,57.89,12.15z"/>
		<path class="st4" d="M62.69,13.21V8.24h0.78l2.41,3.86h0.03l-0.03-0.96v-2.9h0.64v4.96h-0.67l-2.52-4.05H63.3l0.03,0.96v3.09
			h-0.64V13.21z"/>
	</g>
	<path class="st3" d="M56.53,20.45c-1.95,0-3.53,1.48-3.53,3.52c0,2.03,1.59,3.52,3.53,3.52c1.95,0,3.53-1.49,3.53-3.52
		C60.06,21.93,58.48,20.45,56.53,20.45z M56.53,26.1c-1.07,0-1.99-0.88-1.99-2.13c0-1.27,0.92-2.13,1.99-2.13
		c1.07,0,1.99,0.87,1.99,2.13C58.51,25.22,57.6,26.1,56.53,26.1z M48.83,20.45c-1.95,0-3.53,1.48-3.53,3.52
		c0,2.03,1.59,3.52,3.53,3.52c1.95,0,3.53-1.49,3.53-3.52C52.35,21.93,50.76,20.45,48.83,20.45z M48.83,26.1
		c-1.07,0-1.99-0.88-1.99-2.13c0-1.27,0.92-2.13,1.99-2.13c1.07,0,1.99,0.87,1.99,2.13C50.81,25.22,49.89,26.1,48.83,26.1z
		 M39.66,21.53v1.49h3.57c-0.11,0.84-0.39,1.45-0.81,1.88c-0.52,0.52-1.33,1.09-2.76,1.09c-2.2,0-3.92-1.77-3.92-3.97
		c0-2.2,1.72-3.97,3.92-3.97c1.19,0,2.05,0.47,2.69,1.07l1.05-1.05c-0.89-0.85-2.08-1.51-3.75-1.51c-3.01,0-5.54,2.45-5.54,5.46
		c0,3.01,2.53,5.46,5.54,5.46c1.63,0,2.85-0.53,3.81-1.53c0.99-0.99,1.29-2.37,1.29-3.49c0-0.35-0.03-0.67-0.08-0.93
		C44.66,21.53,39.66,21.53,39.66,21.53z M77.15,22.69c-0.29-0.79-1.19-2.24-3.01-2.24c-1.81,0-3.32,1.43-3.32,3.52
		c0,1.97,1.49,3.52,3.49,3.52c1.61,0,2.55-0.99,2.93-1.56l-1.2-0.8c-0.4,0.59-0.95,0.97-1.73,0.97c-0.79,0-1.35-0.36-1.71-1.07
		l4.71-1.95L77.15,22.69z M72.35,23.86c-0.04-1.36,1.05-2.05,1.84-2.05c0.61,0,1.13,0.31,1.31,0.75L72.35,23.86z M68.51,27.27h1.55
		V16.93h-1.55V27.27z M65.99,21.24h-0.05c-0.35-0.41-1.01-0.79-1.85-0.79c-1.76,0-3.37,1.55-3.37,3.53c0,1.97,1.61,3.51,3.37,3.51
		c0.84,0,1.51-0.37,1.85-0.8h0.05v0.51c0,1.35-0.72,2.07-1.88,2.07c-0.95,0-1.53-0.68-1.77-1.25l-1.35,0.56
		c0.39,0.93,1.41,2.08,3.12,2.08c1.81,0,3.35-1.07,3.35-3.67v-6.32h-1.47V21.24z M64.22,26.1c-1.07,0-1.96-0.89-1.96-2.12
		c0-1.24,0.89-2.15,1.96-2.15c1.05,0,1.88,0.91,1.88,2.15C66.1,25.21,65.26,26.1,64.22,26.1z M84.39,16.93h-3.7v10.34h1.54v-3.92
		h2.16c1.71,0,3.39-1.24,3.39-3.21S86.1,16.93,84.39,16.93z M84.43,21.92h-2.2v-3.55h2.2c1.15,0,1.81,0.96,1.81,1.77
		C86.24,20.94,85.58,21.92,84.43,21.92z M93.97,20.43c-1.12,0-2.28,0.49-2.75,1.58l1.37,0.57c0.29-0.57,0.84-0.76,1.41-0.76
		c0.8,0,1.61,0.48,1.62,1.33v0.11c-0.28-0.16-0.88-0.4-1.61-0.4c-1.48,0-2.98,0.81-2.98,2.33c0,1.38,1.21,2.28,2.57,2.28
		c1.04,0,1.61-0.47,1.97-1.01h0.05v0.8h1.49v-3.97C97.11,21.45,95.74,20.43,93.97,20.43z M93.78,26.1c-0.51,0-1.21-0.25-1.21-0.88
		c0-0.8,0.88-1.1,1.64-1.1c0.68,0,1,0.15,1.41,0.35C95.5,25.42,94.67,26.1,93.78,26.1z M102.54,20.66l-1.77,4.48h-0.05l-1.84-4.48
		h-1.66l2.75,6.27l-1.57,3.49h1.61l4.24-9.75h-1.71V20.66z M88.63,27.27h1.54V16.93h-1.54V27.27z"/>
	<g>
		
			<linearGradient id="SVGID_1_" gradientUnits="userSpaceOnUse" x1="18.1916" y1="106.3042" x2="4.3072" y2="120.1885" gradientTransform="matrix(1 0 0 1 0 -96.6457)">
			<stop  offset="0" style="stop-color:#00A0FF"/>
			<stop  offset="6.574450e-03" style="stop-color:#00A1FF"/>
			<stop  offset="0.2601" style="stop-color:#00BEFF"/>
			<stop  offset="0.5122" style="stop-color:#00D2FF"/>
			<stop  offset="0.7604" style="stop-color:#00DFFF"/>
			<stop  offset="1" style="stop-color:#00E3FF"/>
		</linearGradient>
		<path class="st5" d="M8.8,8.69C8.55,8.94,8.41,9.34,8.41,9.85v18.3c0,0.51,0.14,0.91,0.38,1.16l0.06,0.06l10.25-10.25V19v-0.12
			L8.86,8.63L8.8,8.69z"/>
		
			<linearGradient id="SVGID_2_" gradientUnits="userSpaceOnUse" x1="28.1489" y1="115.6457" x2="8.1304" y2="115.6457" gradientTransform="matrix(1 0 0 1 0 -96.6457)">
			<stop  offset="0" style="stop-color:#FFE000"/>
			<stop  offset="0.4087" style="stop-color:#FFBD00"/>
			<stop  offset="0.7754" style="stop-color:#FFA500"/>
			<stop  offset="1" style="stop-color:#FF9C00"/>
		</linearGradient>
		<path class="st6" d="M22.51,22.54l-3.42-3.42V19v-0.12l3.42-3.42l0.08,0.04l4.05,2.3c1.16,0.66,1.16,1.73,0,2.39l-4.05,2.3
			L22.51,22.54z"/>
		
			<linearGradient id="SVGID_3_" gradientUnits="userSpaceOnUse" x1="20.6987" y1="117.547" x2="1.8703" y2="136.3753" gradientTransform="matrix(1 0 0 1 0 -96.6457)">
			<stop  offset="0" style="stop-color:#FF3A44"/>
			<stop  offset="1" style="stop-color:#C31162"/>
		</linearGradient>
		<path class="st7" d="M22.59,22.5L19.1,19L8.8,29.31c0.38,0.4,1.01,0.45,1.72,0.05L22.59,22.5"/>
		
			<linearGradient id="SVGID_4_" gradientUnits="userSpaceOnUse" x1="6.1919" y1="99.2476" x2="14.5995" y2="107.6552" gradientTransform="matrix(1 0 0 1 0 -96.6457)">
			<stop  offset="0" style="stop-color:#32A071"/>
			<stop  offset="0.0685" style="stop-color:#2DA771"/>
			<stop  offset="0.4762" style="stop-color:#15CF74"/>
			<stop  offset="0.8009" style="stop-color:#06E775"/>
			<stop  offset="1" style="stop-color:#00F076"/>
		</linearGradient>
		<path class="st8" d="M22.59,15.51L10.51,8.64C9.8,8.24,9.16,8.29,8.78,8.69L19.1,19L22.59,15.51z"/>
		<g>
			<path class="st9" d="M22.51,22.42l-12.01,6.82c-0.67,0.38-1.27,0.36-1.66,0.01l0,0l-0.06,0.06l0,0l0.06,0.06l0,0
				c0.39,0.35,0.99,0.37,1.66-0.01l12.09-6.87L22.51,22.42z"/>
			<path class="st10" d="M8.8,29.19c-0.24-0.25-0.38-0.65-0.38-1.16v0.12c0,0.51,0.14,0.91,0.38,1.16l0.06-0.06L8.8,29.19z"/>
		</g>
		<path class="st10" d="M26.64,20.07l-4.12,2.34l0.08,0.08l4.05-2.3c0.58-0.33,0.87-0.76,0.87-1.19l0,0
			C27.47,19.39,27.16,19.78,26.64,20.07z"/>
		<path class="st11" d="M10.51,8.76l16.13,9.17c0.52,0.3,0.82,0.68,0.87,1.07l0,0c0-0.43-0.29-0.87-0.87-1.19L10.51,8.64
			C9.35,7.98,8.4,8.53,8.4,9.85v0.12C8.41,8.65,9.36,8.1,10.51,8.76z"/>
	</g>
</g>
</svg>
