<?xml version="1.0" encoding="utf-8"?>
<!-- Generator: Adobe Illustrator 23.0.0, SVG Export Plug-In . SVG Version: 6.00 Build 0)  -->
<svg version="1.1" id="Layer_1" xmlns="http://www.w3.org/2000/svg" xmlns:xlink="http://www.w3.org/1999/xlink" x="0px" y="0px"
	 viewBox="0 0 112 38" style="enable-background:new 0 0 112 38;" xml:space="preserve">
<style type="text/css">
	.st0{fill:#FFFFFF;}
</style>
<g>
	<path class="st0" d="M107.74,37.9H4.19c-2.15,0-3.9-1.75-3.9-3.88V3.97c0-2.13,1.75-3.87,3.9-3.87h103.55
		c2.15,0,3.96,1.74,3.96,3.88v30.05C111.71,36.16,109.89,37.9,107.74,37.9L107.74,37.9z"/>
	<path d="M110.9,34.02c0,1.74-1.41,3.14-3.16,3.14H4.19c-1.75,0-3.17-1.41-3.17-3.14V3.97c0-1.73,1.42-3.14,3.17-3.14h103.55
		c1.75,0,3.16,1.41,3.16,3.14L110.9,34.02L110.9,34.02z"/>
	<g>
		<g>
			<path class="st0" d="M25.15,18.32c-0.02-2.64,2.18-3.93,2.28-3.99c-1.25-1.81-3.18-2.05-3.86-2.07c-1.62-0.17-3.2,0.97-4.02,0.97
				c-0.84,0-2.12-0.95-3.49-0.92c-1.77,0.03-3.42,1.04-4.32,2.62c-1.87,3.22-0.48,7.94,1.32,10.55c0.9,1.27,1.94,2.7,3.31,2.65
				c1.34-0.05,1.84-0.85,3.46-0.85c1.6,0,2.07,0.85,3.47,0.82c1.44-0.02,2.35-1.28,3.21-2.56c1.04-1.46,1.45-2.9,1.47-2.97
				C27.94,22.54,25.18,21.49,25.15,18.32z"/>
			<path class="st0" d="M22.51,10.55c0.72-0.9,1.21-2.12,1.08-3.35c-1.04,0.05-2.35,0.72-3.1,1.59c-0.67,0.77-1.26,2.04-1.11,3.23
				C20.56,12.11,21.76,11.43,22.51,10.55z"/>
		</g>
	</g>
	<g>
		<path class="st0" d="M44.56,27.93h-1.87l-1.03-3.21h-3.57l-0.98,3.21h-1.82l3.54-10.91h2.18L44.56,27.93z M41.35,23.38l-0.93-2.85
			c-0.1-0.29-0.28-0.98-0.55-2.06h-0.03c-0.11,0.46-0.28,1.15-0.52,2.06l-0.91,2.85H41.35z"/>
		<path class="st0" d="M53.65,23.9c0,1.34-0.36,2.4-1.09,3.17c-0.65,0.69-1.46,1.04-2.43,1.04c-1.04,0-1.79-0.37-2.25-1.12h-0.03
			v4.15h-1.76v-8.49c0-0.84-0.02-1.7-0.07-2.59h1.55l0.1,1.25h0.03c0.59-0.94,1.48-1.41,2.67-1.41c0.93,0,1.71,0.37,2.34,1.1
			C53.34,21.74,53.65,22.7,53.65,23.9z M51.86,23.97c0-0.77-0.17-1.4-0.52-1.89c-0.38-0.52-0.89-0.78-1.53-0.78
			c-0.43,0-0.83,0.14-1.18,0.43s-0.58,0.66-0.69,1.13c-0.05,0.22-0.08,0.39-0.08,0.53v1.31c0,0.57,0.18,1.06,0.53,1.45
			c0.35,0.39,0.81,0.59,1.38,0.59c0.66,0,1.18-0.25,1.55-0.76C51.68,25.47,51.86,24.8,51.86,23.97z"/>
		<path class="st0" d="M62.76,23.9c0,1.34-0.36,2.4-1.09,3.17c-0.65,0.69-1.46,1.04-2.43,1.04c-1.04,0-1.79-0.37-2.25-1.12h-0.03
			v4.15h-1.76v-8.49c0-0.84-0.02-1.7-0.07-2.59h1.55l0.1,1.25h0.03c0.59-0.94,1.48-1.41,2.67-1.41c0.93,0,1.71,0.37,2.34,1.1
			C62.45,21.74,62.76,22.7,62.76,23.9z M60.97,23.97c0-0.77-0.17-1.4-0.52-1.89c-0.38-0.52-0.89-0.78-1.53-0.78
			c-0.43,0-0.83,0.14-1.18,0.43s-0.58,0.66-0.69,1.13c-0.05,0.22-0.08,0.39-0.08,0.53v1.31c0,0.57,0.18,1.06,0.53,1.45
			c0.35,0.39,0.81,0.59,1.38,0.59c0.66,0,1.18-0.25,1.55-0.76C60.79,25.47,60.97,24.8,60.97,23.97z"/>
		<path class="st0" d="M72.96,24.87c0,0.93-0.32,1.68-0.98,2.27c-0.72,0.64-1.71,0.96-2.99,0.96c-1.18,0-2.13-0.23-2.85-0.68
			l0.41-1.46c0.77,0.46,1.62,0.7,2.54,0.7c0.66,0,1.18-0.15,1.55-0.45c0.37-0.3,0.55-0.7,0.55-1.19c0-0.44-0.15-0.82-0.46-1.12
			c-0.3-0.3-0.81-0.58-1.52-0.84c-1.92-0.71-2.88-1.76-2.88-3.13c0-0.9,0.34-1.63,1.01-2.21c0.67-0.57,1.57-0.86,2.69-0.86
			c1,0,1.83,0.17,2.49,0.52l-0.44,1.43c-0.62-0.33-1.32-0.5-2.1-0.5c-0.62,0-1.1,0.15-1.45,0.45c-0.29,0.27-0.44,0.6-0.44,0.99
			c0,0.43,0.17,0.79,0.5,1.07c0.29,0.26,0.83,0.54,1.6,0.84c0.94,0.38,1.64,0.82,2.09,1.33C72.74,23.49,72.96,24.12,72.96,24.87z"/>
		<path class="st0" d="M78.76,21.38h-1.94v3.82c0,0.97,0.34,1.46,1.03,1.46c0.31,0,0.58-0.03,0.78-0.08l0.05,1.33
			c-0.35,0.13-0.8,0.19-1.37,0.19c-0.69,0-1.24-0.21-1.63-0.63s-0.59-1.13-0.59-2.12v-3.97h-1.16v-1.31h1.16v-1.44l1.73-0.52v1.96
			h1.94C78.76,20.06,78.76,21.38,78.76,21.38z"/>
		<path class="st0" d="M87.53,23.93c0,1.21-0.35,2.2-1.04,2.98c-0.73,0.8-1.7,1.2-2.9,1.2c-1.16,0-2.09-0.38-2.78-1.15
			s-1.03-1.73-1.03-2.9c0-1.22,0.35-2.22,1.07-2.99c0.71-0.78,1.67-1.17,2.88-1.17c1.16,0,2.1,0.38,2.8,1.15
			C87.18,21.8,87.53,22.76,87.53,23.93z M85.69,23.99c0-0.73-0.16-1.35-0.47-1.87c-0.37-0.63-0.9-0.94-1.58-0.94
			c-0.71,0-1.24,0.31-1.61,0.94c-0.32,0.52-0.47,1.15-0.47,1.9c0,0.73,0.16,1.35,0.47,1.87c0.38,0.63,0.91,0.94,1.6,0.94
			c0.67,0,1.2-0.32,1.58-0.96C85.53,25.35,85.69,24.72,85.69,23.99z"/>
		<path class="st0" d="M93.24,21.6c-0.17-0.03-0.36-0.05-0.55-0.05c-0.62,0-1.1,0.23-1.43,0.7c-0.29,0.41-0.44,0.93-0.44,1.55v4.13
			h-1.76l0.02-5.39c0-0.91-0.02-1.73-0.07-2.48h1.53l0.06,1.51h0.05c0.19-0.52,0.48-0.93,0.88-1.25c0.39-0.28,0.82-0.42,1.27-0.42
			c0.16,0,0.31,0.01,0.44,0.03C93.24,19.94,93.24,21.6,93.24,21.6z"/>
		<path class="st0" d="M101.1,23.63c0,0.31-0.02,0.58-0.06,0.79h-5.28c0.02,0.78,0.28,1.37,0.77,1.78c0.44,0.37,1.02,0.55,1.73,0.55
			c0.78,0,1.49-0.12,2.14-0.37l0.28,1.21c-0.75,0.32-1.63,0.49-2.65,0.49c-1.23,0-2.19-0.36-2.89-1.08s-1.05-1.68-1.05-2.89
			c0-1.19,0.33-2.17,0.98-2.96c0.68-0.84,1.61-1.26,2.77-1.26c1.14,0,2.01,0.42,2.59,1.26C100.88,21.82,101.1,22.65,101.1,23.63z
			 M99.43,23.17c0.01-0.52-0.1-0.97-0.34-1.34c-0.3-0.49-0.77-0.73-1.4-0.73c-0.58,0-1.04,0.24-1.4,0.71
			c-0.29,0.38-0.47,0.83-0.52,1.36H99.43L99.43,23.17z"/>
	</g>
	<g>
		<g>
			<path class="st0" d="M40.77,10.31c0,0.97-0.29,1.69-0.87,2.18c-0.54,0.45-1.3,0.68-2.3,0.68c-0.49,0-0.91-0.02-1.27-0.06V7.82
				c0.46-0.07,0.96-0.11,1.49-0.11c0.94,0,1.66,0.2,2.14,0.61C40.5,8.79,40.77,9.45,40.77,10.31z M39.86,10.33
				c0-0.63-0.17-1.11-0.5-1.44c-0.33-0.33-0.82-0.5-1.46-0.5c-0.27,0-0.5,0.02-0.7,0.06v4.01c0.11,0.02,0.3,0.02,0.58,0.02
				c0.66,0,1.17-0.18,1.53-0.55C39.68,11.56,39.86,11.03,39.86,10.33z"/>
			<path class="st0" d="M45.61,11.15c0,0.59-0.17,1.08-0.51,1.46c-0.36,0.39-0.83,0.59-1.43,0.59c-0.57,0-1.03-0.19-1.37-0.57
				s-0.51-0.85-0.51-1.42c0-0.6,0.17-1.09,0.52-1.47s0.82-0.57,1.41-0.57c0.57,0,1.03,0.19,1.38,0.56
				C45.44,10.1,45.61,10.57,45.61,11.15z M44.71,11.18c0-0.36-0.08-0.66-0.23-0.92C44.3,9.95,44.04,9.8,43.7,9.8
				c-0.35,0-0.61,0.15-0.79,0.46c-0.16,0.26-0.23,0.57-0.23,0.93c0,0.36,0.08,0.66,0.23,0.92c0.19,0.31,0.45,0.46,0.78,0.46
				c0.33,0,0.59-0.16,0.78-0.47C44.63,11.84,44.71,11.53,44.71,11.18z"/>
			<path class="st0" d="M52.09,9.25l-1.22,3.87h-0.79l-0.5-1.68c-0.13-0.42-0.23-0.84-0.31-1.25h-0.02
				c-0.08,0.42-0.18,0.84-0.31,1.25l-0.54,1.68h-0.8l-1.14-3.87h0.89l0.44,1.84c0.11,0.43,0.19,0.85,0.26,1.24h0.02
				c0.06-0.32,0.17-0.73,0.32-1.23l0.55-1.85h0.7l0.53,1.81c0.13,0.44,0.23,0.86,0.31,1.27h0.02c0.06-0.4,0.15-0.82,0.26-1.27
				l0.47-1.81H52.09L52.09,9.25z"/>
			<path class="st0" d="M56.57,13.11h-0.86V10.9c0-0.68-0.26-1.02-0.78-1.02c-0.26,0-0.46,0.09-0.62,0.28s-0.24,0.41-0.24,0.66v2.29
				h-0.88v-2.76c0-0.34-0.01-0.71-0.03-1.11h0.76l0.04,0.6h0.02c0.1-0.19,0.25-0.34,0.45-0.47c0.23-0.14,0.5-0.22,0.78-0.22
				c0.36,0,0.67,0.12,0.91,0.35c0.3,0.29,0.45,0.71,0.45,1.28C56.58,10.78,56.58,13.11,56.57,13.11z"/>
			<path class="st0" d="M58.96,13.11h-0.87V7.48h0.86L58.96,13.11L58.96,13.11z"/>
			<path class="st0" d="M64.05,11.15c0,0.59-0.17,1.08-0.51,1.46c-0.36,0.39-0.83,0.59-1.43,0.59c-0.57,0-1.03-0.19-1.37-0.57
				s-0.51-0.85-0.51-1.42c0-0.6,0.17-1.09,0.52-1.47c0.35-0.38,0.82-0.57,1.41-0.57c0.57,0,1.03,0.19,1.38,0.56
				C63.88,10.1,64.05,10.57,64.05,11.15z M63.15,11.18c0-0.36-0.08-0.66-0.23-0.92c-0.18-0.31-0.44-0.46-0.77-0.46
				c-0.35,0-0.61,0.15-0.79,0.46c-0.16,0.26-0.23,0.57-0.23,0.93c0,0.36,0.08,0.66,0.23,0.92c0.19,0.31,0.45,0.46,0.78,0.46
				c0.33,0,0.59-0.16,0.77-0.47C63.07,11.84,63.15,11.53,63.15,11.18z"/>
			<path class="st0" d="M68.24,13.11h-0.78l-0.06-0.45h-0.02c-0.27,0.36-0.64,0.53-1.14,0.53c-0.37,0-0.66-0.12-0.89-0.35
				c-0.2-0.21-0.3-0.47-0.3-0.79c0-0.47,0.2-0.83,0.6-1.08s0.96-0.37,1.68-0.37v-0.07c0-0.51-0.27-0.76-0.81-0.76
				c-0.38,0-0.72,0.1-1.01,0.29L65.32,9.5c0.36-0.22,0.81-0.33,1.33-0.33c1.02,0,1.53,0.53,1.53,1.6v1.42
				C68.18,12.58,68.21,12.89,68.24,13.11z M67.35,11.79v-0.6c-0.95-0.02-1.43,0.24-1.43,0.78c0,0.2,0.05,0.35,0.17,0.45
				c0.11,0.1,0.25,0.15,0.42,0.15c0.19,0,0.37-0.06,0.53-0.18c0.16-0.12,0.26-0.27,0.3-0.46C67.33,11.9,67.35,11.84,67.35,11.79z"/>
			<path class="st0" d="M73.15,13.11h-0.77l-0.04-0.62h-0.02c-0.25,0.47-0.66,0.71-1.25,0.71c-0.47,0-0.86-0.18-1.17-0.55
				s-0.46-0.84-0.46-1.42c0-0.63,0.17-1.13,0.5-1.52c0.33-0.36,0.73-0.54,1.2-0.54c0.52,0,0.89,0.17,1.1,0.52h0.02V7.48h0.87v4.6
				C73.13,12.45,73.13,12.8,73.15,13.11z M72.25,11.48v-0.64c0-0.11-0.01-0.2-0.02-0.27c-0.05-0.21-0.15-0.38-0.31-0.52
				c-0.16-0.14-0.35-0.21-0.58-0.21c-0.32,0-0.58,0.13-0.76,0.38c-0.18,0.26-0.28,0.58-0.28,0.98c0,0.38,0.09,0.69,0.27,0.93
				c0.19,0.25,0.44,0.38,0.76,0.38c0.28,0,0.51-0.11,0.68-0.32C72.17,12,72.25,11.76,72.25,11.48z"/>
			<path class="st0" d="M80.56,11.15c0,0.59-0.17,1.08-0.51,1.46c-0.36,0.39-0.83,0.59-1.43,0.59c-0.57,0-1.03-0.19-1.37-0.57
				c-0.34-0.38-0.51-0.85-0.51-1.42c0-0.6,0.17-1.09,0.52-1.47s0.82-0.57,1.41-0.57c0.57,0,1.03,0.19,1.38,0.56
				C80.38,10.1,80.56,10.57,80.56,11.15z M79.65,11.18c0-0.36-0.08-0.66-0.23-0.92c-0.18-0.31-0.44-0.46-0.78-0.46
				c-0.35,0-0.61,0.15-0.79,0.46c-0.16,0.26-0.23,0.57-0.23,0.93c0,0.36,0.08,0.66,0.23,0.92c0.19,0.31,0.45,0.46,0.78,0.46
				s0.59-0.16,0.78-0.47C79.57,11.84,79.65,11.53,79.65,11.18z"/>
			<path class="st0" d="M85.21,13.11h-0.86V10.9c0-0.68-0.26-1.02-0.78-1.02c-0.26,0-0.46,0.09-0.62,0.28s-0.24,0.41-0.24,0.66v2.29
				h-0.87v-2.76c0-0.34-0.01-0.71-0.03-1.11h0.76l0.04,0.6h0.02c0.1-0.19,0.25-0.34,0.45-0.47c0.24-0.14,0.5-0.22,0.78-0.22
				c0.36,0,0.66,0.12,0.9,0.35c0.3,0.29,0.45,0.71,0.45,1.28C85.2,10.78,85.2,13.11,85.21,13.11z"/>
			<path class="st0" d="M91.03,9.89h-0.95v1.88c0,0.48,0.17,0.72,0.5,0.72c0.16,0,0.28-0.01,0.39-0.04l0.02,0.65
				c-0.17,0.06-0.4,0.1-0.67,0.1c-0.34,0-0.61-0.1-0.8-0.31s-0.29-0.55-0.29-1.04V9.89h-0.57V9.25h0.57V8.54l0.85-0.25v0.96h0.95
				L91.03,9.89L91.03,9.89z"/>
			<path class="st0" d="M95.6,13.11h-0.87v-2.2c0-0.69-0.26-1.04-0.78-1.04c-0.4,0-0.68,0.2-0.83,0.6
				c-0.03,0.08-0.04,0.19-0.04,0.31v2.32h-0.86V7.48h0.86V9.8h0.02c0.27-0.42,0.66-0.64,1.17-0.64c0.36,0,0.65,0.12,0.89,0.35
				c0.29,0.29,0.44,0.72,0.44,1.3C95.6,10.82,95.6,13.11,95.6,13.11z"/>
			<path class="st0" d="M100.32,11c0,0.15-0.01,0.28-0.03,0.39h-2.6c0.01,0.38,0.14,0.67,0.38,0.88c0.22,0.18,0.5,0.27,0.85,0.27
				c0.38,0,0.73-0.06,1.05-0.18l0.14,0.6c-0.37,0.16-0.8,0.24-1.31,0.24c-0.6,0-1.08-0.18-1.42-0.53c-0.34-0.35-0.52-0.83-0.52-1.42
				c0-0.58,0.16-1.07,0.48-1.46c0.34-0.41,0.79-0.62,1.36-0.62c0.56,0,0.98,0.21,1.27,0.62C100.21,10.11,100.32,10.52,100.32,11z
				 M99.5,10.78c0.01-0.26-0.05-0.47-0.17-0.66c-0.15-0.24-0.38-0.36-0.69-0.36c-0.28,0-0.51,0.12-0.69,0.35
				c-0.14,0.19-0.23,0.41-0.26,0.67C97.69,10.78,99.5,10.78,99.5,10.78z"/>
		</g>
	</g>
</g>
</svg>
