<svg xmlns="http://www.w3.org/2000/svg" width="74" height="74" viewBox="0 0 74 74"><defs><style>.a{fill:#228dcb;}.b{fill:#fff;}</style></defs><g transform="translate(-1391 -56)"><circle class="a" cx="37" cy="37" r="37" transform="translate(1391 56)"/><path class="b" d="M34.621,21.451a1.672,1.672,0,0,0-.137-2.392L18.815,5.348a1.953,1.953,0,0,0-2.548.029L.545,19.79a1.662,1.662,0,0,0-.076,2.389l.394.411a1.719,1.719,0,0,0,2.359.181L4.4,21.718V37.123a1.71,1.71,0,0,0,1.71,1.71h6.129a1.71,1.71,0,0,0,1.71-1.71V26.345h7.817V37.123a1.616,1.616,0,0,0,1.607,1.71h6.495a1.71,1.71,0,0,0,1.71-1.71V21.934l.725.636c.4.351,1.239.07,1.875-.63Z" transform="translate(1411 70.11)"/></g></svg>