<svg xmlns="http://www.w3.org/2000/svg" width="74" height="74" viewBox="0 0 74 74"><defs><style>.a{fill:#228dcb;}.b{fill:#fff;}</style></defs><g transform="translate(-1267 -56)"><circle class="a" cx="37" cy="37" r="37" transform="translate(1267 56)"/><path class="b" d="M1369.323,627.53c1.18-2.123,1.179-2.114,3.411-1.748.7.114,1.259.3,1.281,1.161.021.837-.467,1.106-1.192,1.242-.822.154-1.629.39-2.557.618,1,1.822,2.5,3.366,2.535,5.525.035,2.033.007,4.067.007,6.17h-39.587c.006-4.053-.813-8.211,2.78-11.617-1.187-.3-2.068-.543-2.962-.727-.668-.137-1.035-.452-1.036-1.171s.408-1.029,1.052-1.167c2.25-.482,2.249-.486,3.669,1.62.18-.361.347-.654.478-.962.571-1.341,1.112-2.694,1.7-4.026a4.617,4.617,0,0,1,3.639-2.894,68.641,68.641,0,0,1,20.618-.073,4.941,4.941,0,0,1,4.065,3.2c.53,1.252,1.047,2.51,1.578,3.762C1368.937,626.759,1369.1,627.062,1369.323,627.53Zm-1.992-1.025c-.464-1.109-.917-2.1-1.3-3.116a3.686,3.686,0,0,0-3.312-2.588c-1.706-.173-3.407-.408-5.117-.525a61.58,61.58,0,0,0-14.809.651,3.129,3.129,0,0,0-1.957,1.095,44.826,44.826,0,0,0-2.258,4.483Zm-5.437,7.133a70.085,70.085,0,0,1-17.765,0c.633,1.338,1.131,2.45,1.695,3.527a1.018,1.018,0,0,0,.722.328,67.291,67.291,0,0,0,12.976-.009.988.988,0,0,0,.7-.358C1360.771,636.078,1361.256,634.992,1361.894,633.638Zm-18.76,3.319c-.913-2.407-2.019-4.245-4.824-3.919a3.438,3.438,0,0,1-.775-.045c-.713-.082-1.29.009-1.434.883-.175,1.059.174,2.025.981,2.169C1339.048,636.4,1341.032,636.648,1343.134,636.957Zm19.7-.239.168.247c2.028-.316,4.074-.548,6.074-.988.9-.2.982-1.17.82-1.953-.08-.384-.513-.988-.788-.988a37.407,37.407,0,0,0-3.866.289.736.736,0,0,0-.471.3C1364.11,634.65,1363.476,635.687,1362.833,636.718Z" transform="translate(-49.003 -540.649)"/><path class="b" d="M1377.738,738.361c.5,2.67-1.229,4.723-4.1,4.783-3.078.064-6.158.028-9.238.028q-10.648,0-21.3-.007c-.259,0-.519,0-.778-.013-2.731-.133-4.3-1.944-4.061-4.791Z" transform="translate(-54.027 -637.004)"/><path class="b" d="M1519.368,761.373c0,1.394.063,2.55-.044,3.69-.028.293-.578.734-.918.763a33.9,33.9,0,0,1-3.4.033.922.922,0,0,1-1-.958,6.808,6.808,0,0,1,.016-1.356c.026-.178.3-.465.453-.457A6.687,6.687,0,0,0,1519.368,761.373Z" transform="translate(-195.583 -655.54)"/><path class="b" d="M1337.942,761.1a6.619,6.619,0,0,0,4.834,1.748c.146-.009.423.071.427.125a7.058,7.058,0,0,1,.023,1.983c-.064.29-.637.629-1,.659-1.057.088-2.127.036-3.192.029a.967.967,0,0,1-1.088-1.071C1337.937,763.518,1337.942,762.458,1337.942,761.1Z" transform="translate(-53.785 -655.324)"/><path class="b" d="M1465.6,569.067a4.265,4.265,0,0,0,2.986,2.9,4.291,4.291,0,0,0-2.976,2.98,4.384,4.384,0,0,0-2.979-2.977A4.325,4.325,0,0,0,1465.6,569.067Z" transform="translate(-154.219 -500.64)"/><path class="b" d="M1525.249,576.336l1.932-1.852,1.883,1.86-1.91,1.862Z" transform="translate(-204.66 -505.003)"/><path class="b" d="M1505.227,599.939l-1.911-1.82,1.934-1.852,1.925,1.855Z" transform="translate(-186.993 -522.548)"/></g></svg>