<svg xmlns="http://www.w3.org/2000/svg" width="74" height="74" viewBox="0 0 74 74"><defs><style>.a{fill:#228dcb;}.b{fill:#fff;}</style></defs><g transform="translate(-1143 -56)"><circle class="a" cx="37" cy="37" r="37" transform="translate(1143 56)"/><g transform="translate(1142.511 49.086)"><g transform="translate(0 16.301)"><path class="b" d="M66.417,37.282c-.913-6.876-4.705-11.89-9.38-11.89H35.417c-4.677,0-8.467,5.015-9.383,11.887-3.289,1.7-4.992,5.184-4.992,9.213a10.687,10.687,0,0,0,2.771,7.562v6.683h8.494V56.824H60.142v3.914h8.5V54.057a10.689,10.689,0,0,0,2.773-7.563C71.408,42.466,69.705,38.984,66.417,37.282Zm-31-9.34H57.036c3.01,0,5.642,3.573,6.626,8.414a12.5,12.5,0,0,0-1.445-.159c0-.01,0-.021,0-.032a5.19,5.19,0,1,0-10.379,0H30.94a12.4,12.4,0,0,0-2.157.189C29.773,31.514,32.408,27.942,35.417,27.942Zm25.106,8.223H53.548a3.488,3.488,0,1,1,6.976,0ZM29.742,49.848A3.358,3.358,0,1,1,33.1,46.492,3.355,3.355,0,0,1,29.742,49.848ZM55.974,49.3h-19.5a.85.85,0,0,1,0-1.7h19.5a.85.85,0,0,1,0,1.7Zm0-2.939h-19.5a.85.85,0,1,1,0-1.7h19.5a.85.85,0,0,1,0,1.7Zm6.73,3.484a3.358,3.358,0,1,1,3.355-3.356A3.354,3.354,0,0,1,62.7,49.848Z" transform="translate(-8.736 -15.779)"/></g></g></g></svg>